<svg width="186" height="34" viewBox="0 0 186 34" fill="none" xmlns="http://www.w3.org/2000/svg">
<g clip-path="url(#clip0_5_10405)">
<path d="M57.5883 0.00656286H49.707C49.4231 0.0371896 48.9693 0.144383 48.4315 0.494402C48.4035 0.511903 48.3799 0.527217 48.3541 0.549093L40.9999 6.44036C40.3911 6.93038 39.5114 6.3791 39.6662 5.60468L40.4879 1.50071C40.6772 0.234075 39.6705 0 39.6641 0L38.2122 0.00656286H37.2055H29.9567C29.6728 0.0371896 29.2189 0.144383 28.6812 0.494402C28.6532 0.511903 28.6295 0.527217 28.6037 0.549093L21.2495 6.44036C20.6408 6.93038 19.761 6.3791 19.9159 5.60468L20.7376 1.50071C20.9269 0.234075 19.9223 0 19.9137 0H17.8294V0.00656286H2.3531C0.227921 0.00656286 -0.615265 1.52258 0.481738 3.3755L17.7864 32.6109C18.8834 34.4638 20.6773 34.4638 21.7722 32.6109L29.9717 18.7588L38.1713 32.6109C39.2683 34.4638 41.0622 34.4638 42.1571 32.6109L59.4596 3.3755C60.5566 1.52258 59.7134 0.00656286 57.5883 0.00656286Z" fill="#DCA523"/>
<path d="M40.4923 0.964741L29.9697 18.761L31.7723 21.8018L40.5031 1.33007C40.5182 1.18132 40.5096 1.08506 40.4945 0.964741H40.4923Z" fill="url(#paint0_linear_5_10405)"/>
<path d="M71.957 8.01325L75.0049 19.6208L78.7541 8.01325H82.4107L86.1599 19.6208L89.2079 8.01325H94.011L88.7389 25.9846H84.052L80.5824 15.5671L77.1129 25.9846H72.4259L67.1538 8.01325H71.957Z" fill="white"/>
<path d="M104.854 22.8628H98.2913L97.2352 25.9846H92.3374L99.0635 8.01325H104.08L110.806 25.9846H105.908L104.854 22.8628ZM103.637 19.3123L101.574 13.3292L99.5109 19.3123H103.637Z" fill="white"/>
<path d="M118.751 11.9707V25.9867H114.159V11.9707H110.386V8.01325H122.526V11.9707H118.754H118.751Z" fill="white"/>
<path d="M137.125 14.0205C136.063 12.7013 134.751 12.0429 133.187 12.0429C132.499 12.0429 131.862 12.1697 131.277 12.4235C130.69 12.6794 130.186 13.0251 129.765 13.4604C129.343 13.898 129.01 14.4186 128.769 15.0202C128.528 15.624 128.405 16.2759 128.405 16.9737C128.405 17.6716 128.526 18.3498 128.769 18.9514C129.01 19.5551 129.347 20.0802 129.778 20.5243C130.208 20.9683 130.711 21.3184 131.29 21.5743C131.866 21.8281 132.492 21.955 133.163 21.955C134.632 21.955 135.953 21.3206 137.125 20.0495V25.5798L136.656 25.7483C135.953 26.0021 135.297 26.188 134.688 26.3083C134.077 26.4286 133.477 26.4877 132.884 26.4877C131.664 26.4877 130.496 26.2514 129.38 25.7855C128.263 25.3173 127.278 24.6567 126.426 23.8079C125.575 22.9569 124.89 21.9484 124.376 20.7802C123.86 19.612 123.602 18.3366 123.602 16.9541C123.602 15.5715 123.856 14.3049 124.363 13.152C124.871 12.0013 125.551 11.0059 126.403 10.1724C127.254 9.33895 128.242 8.68704 129.367 8.21889C130.492 7.75074 131.673 7.51666 132.905 7.51666C133.608 7.51666 134.299 7.59323 134.979 7.74199C135.658 7.89294 136.372 8.12701 137.123 8.44422V14.0226L137.125 14.0205Z" fill="white"/>
<path d="M145.375 14.9502H152.006V8.01325H156.601V25.9846H152.006V18.5707H145.375V25.9846H140.782V8.01325H145.375V14.9502Z" fill="white"/>
<path d="M170.924 8.01325V25.9846H166.332V8.01325H170.924Z" fill="white"/>
<path d="M182.227 11.9707V25.9867H177.635V11.9707H173.862V8.01325H186.002V11.9707H182.229H182.227Z" fill="white"/>
</g>
<defs>
<linearGradient id="paint0_linear_5_10405" x1="39.9309" y1="14.5214" x2="26.5057" y2="3.79651" gradientUnits="userSpaceOnUse">
<stop stop-color="#DCA523"/>
<stop offset="0.18" stop-color="#CE931F"/>
<stop offset="0.54" stop-color="#AA6717"/>
<stop offset="0.87" stop-color="#863A0F"/>
</linearGradient>
<clipPath id="clip0_5_10405">
<rect width="186" height="34" fill="white"/>
</clipPath>
</defs>
</svg>
