<svg width="60" height="34" viewBox="0 0 60 34" fill="none" xmlns="http://www.w3.org/2000/svg">
<path d="M57.5878 0.00656286H49.7066C49.4226 0.0371896 48.9688 0.144383 48.431 0.494402C48.4031 0.511903 48.3794 0.527217 48.3536 0.549093L40.9994 6.44036C40.3906 6.93038 39.5109 6.3791 39.6658 5.60468L40.4874 1.50071C40.6767 0.234075 39.6701 0 39.6636 0L38.2117 0.00656286H37.205H29.9562C29.6723 0.0371896 29.2184 0.144383 28.6807 0.494402C28.6527 0.511903 28.629 0.527217 28.6032 0.549093L21.249 6.44036C20.6403 6.93038 19.7605 6.3791 19.9154 5.60468L20.7371 1.50071C20.9264 0.234075 19.9219 0 19.9133 0H17.8289V0.00656286H2.35261C0.227433 0.00656286 -0.615753 1.52258 0.481249 3.3755L17.7859 32.6109C18.8829 34.4638 20.6769 34.4638 21.7717 32.6109L29.9713 18.7588L38.1708 32.6109C39.2678 34.4638 41.0617 34.4638 42.1566 32.6109L59.4591 3.3755C60.5561 1.52258 59.7129 0.00656286 57.5878 0.00656286Z" fill="#DCA523"/>
<path d="M40.4919 0.964741L29.9692 18.761L31.7718 21.8018L40.5026 1.33007C40.5177 1.18132 40.5091 1.08506 40.494 0.964741H40.4919Z" fill="url(#paint0_linear_5_10406)"/>
<defs>
<linearGradient id="paint0_linear_5_10406" x1="39.9305" y1="14.5214" x2="26.5052" y2="3.79651" gradientUnits="userSpaceOnUse">
<stop stop-color="#DCA523"/>
<stop offset="0.18" stop-color="#CE931F"/>
<stop offset="0.54" stop-color="#AA6717"/>
<stop offset="0.87" stop-color="#863A0F"/>
</linearGradient>
</defs>
</svg>
